<?xml version="1.0" standalone="no"?>
<!DOCTYPE svg PUBLIC "-//W3C//DTD SVG 20010904//EN"
 "http://www.w3.org/TR/2001/REC-SVG-20010904/DTD/svg10.dtd">
<svg version="1.0" xmlns="http://www.w3.org/2000/svg"
 width="35pt" height="35pt" viewBox="0 0 512.000000 512.000000"
 preserveAspectRatio="xMidYMid meet">

<g transform="translate(0.000000,512.000000) scale(0.100000,-0.100000)"
fill="#000000" stroke="none">
<path d="M2639 4428 c-41 -34 18 -286 109 -465 54 -106 168 -280 218 -334 75
-81 133 -129 156 -129 17 0 103 82 316 299 160 165 292 306 292 314 0 25 -203
143 -341 198 -165 66 -400 114 -605 125 -101 5 -132 3 -145 -8z"/>
<path d="M2165 4265 c-230 -66 -334 -114 -520 -238 -119 -80 -244 -187 -345
-294 -95 -102 -109 -125 -89 -149 7 -9 67 -43 133 -76 264 -132 704 -388 1021
-596 181 -119 212 -134 237 -121 10 5 46 46 80 92 34 45 104 134 155 197 51
63 93 120 93 126 0 7 -22 32 -48 56 -74 67 -178 191 -248 294 -129 194 -209
386 -266 635 -14 62 -28 104 -38 109 -9 5 -71 -8 -165 -35z"/>
<path d="M3780 3796 c-107 -96 -455 -450 -473 -482 -19 -33 5 -55 126 -114
229 -110 402 -150 650 -150 137 0 175 3 227 20 34 11 69 20 76 20 7 0 18 8 23
18 19 36 -137 367 -244 516 -77 108 -232 276 -253 276 -9 -1 -69 -47 -132
-104z"/>
<path d="M1041 3324 c-58 -89 -121 -256 -157 -419 -43 -191 -46 -625 -5 -676
17 -22 17 -22 114 -4 79 14 135 16 319 12 268 -6 403 -30 582 -104 158 -65
213 -84 228 -78 7 3 38 45 68 92 30 48 106 164 168 258 62 93 114 179 115 190
5 47 -718 491 -1155 711 -103 52 -197 94 -207 94 -14 0 -36 -24 -70 -76z"/>
<path d="M3060 3046 c-56 -58 -130 -148 -239 -289 -25 -33 -41 -63 -38 -72 6
-14 76 -68 326 -250 156 -114 538 -417 699 -555 68 -58 143 -121 167 -140 24
-19 71 -59 105 -87 60 -52 97 -70 123 -60 18 7 109 177 150 282 50 125 94 285
113 401 22 142 29 377 15 471 -20 126 -21 128 -87 113 -103 -23 -288 -31 -443
-20 -287 21 -512 89 -747 227 -80 48 -77 48 -144 -21z"/>
<path d="M2603 2408 c-83 -107 -272 -398 -293 -452 -13 -34 -1 -57 42 -87 51
-36 194 -177 258 -254 63 -77 147 -211 203 -323 48 -96 131 -344 152 -452 20
-110 25 -115 106 -100 189 34 454 157 672 310 98 70 300 263 312 299 5 18 -5
33 -62 85 -185 171 -733 613 -1046 843 -116 85 -222 164 -236 174 -38 30 -56
23 -108 -43z"/>
<path d="M1025 1990 c-108 -19 -105 -16 -81 -110 29 -110 133 -307 236 -445
156 -210 383 -421 432 -403 7 3 44 79 82 169 39 90 119 263 179 384 l109 220
-25 21 c-37 31 -208 100 -337 135 -109 29 -127 31 -330 34 -118 2 -237 0 -265
-5z"/>
<path d="M2160 1668 c-13 -24 -34 -57 -46 -73 -24 -32 -110 -209 -199 -410
-88 -199 -106 -247 -101 -261 8 -20 45 -41 152 -85 219 -89 469 -136 668 -125
61 3 114 10 119 15 13 13 -16 159 -55 276 -57 175 -147 340 -262 484 -71 88
-211 221 -234 221 -11 0 -28 -17 -42 -42z"/>
<path d="M5070 1595 c-19 -7 -60 -20 -90 -30 -169 -53 -309 -109 -475 -190
-164 -80 -297 -168 -393 -259 -152 -144 -212 -261 -212 -413 0 -146 47 -248
173 -375 62 -63 208 -178 226 -178 5 0 14 -6 20 -14 7 -8 26 -21 44 -30 37
-19 55 -29 82 -44 11 -7 27 -15 35 -18 8 -4 33 -15 56 -25 36 -17 67 -19 312
-19 l272 0 0 43 c0 50 5 47 -135 98 -135 50 -334 152 -422 217 -95 71 -181
163 -214 228 -21 42 -24 63 -24 149 0 86 3 107 24 149 33 66 119 157 216 228
85 63 286 166 425 219 145 54 130 36 130 166 0 62 -3 113 -7 112 -5 -1 -24 -7
-43 -14z"/>
</g>
</svg>
